<svg width="30" height="28" viewBox="0 0 30 28" fill="none" xmlns="http://www.w3.org/2000/svg">
<g filter="url(#filter0_d_861_3059)">
<path d="M5.7 4.7998C5.0408 4.7998 4.5 5.3406 4.5 5.9998V10.1998H4.8C5.79767 10.1998 6.6 11.0021 6.6 11.9998C6.6 12.9975 5.79767 13.7998 4.8 13.7998H4.5V17.9998C4.5 18.659 5.0408 19.1998 5.7 19.1998H24.3C24.9592 19.1998 25.5 18.659 25.5 17.9998V13.7998H25.2C24.2023 13.7998 23.4 12.9975 23.4 11.9998C23.4 11.0021 24.2023 10.1998 25.2 10.1998H25.5V5.9998C25.5 5.3406 24.9592 4.7998 24.3 4.7998H5.7ZM5.7 5.3998H10.2C10.2 5.47937 10.2316 5.55568 10.2879 5.61194C10.3441 5.6682 10.4204 5.6998 10.5 5.6998C10.5796 5.6998 10.6559 5.6682 10.7121 5.61194C10.7684 5.55568 10.8 5.47937 10.8 5.3998H24.3C24.635 5.3998 24.9 5.6648 24.9 5.9998V9.66074C23.7254 9.81521 22.8 10.7842 22.8 11.9998C22.8 13.2154 23.7254 14.1844 24.9 14.3389V17.9998C24.9 18.3348 24.635 18.5998 24.3 18.5998H10.8C10.8 18.5202 10.7684 18.4439 10.7121 18.3877C10.6559 18.3314 10.5796 18.2998 10.5 18.2998C10.4204 18.2998 10.3441 18.3314 10.2879 18.3877C10.2316 18.4439 10.2 18.5202 10.2 18.5998H5.7C5.365 18.5998 5.1 18.3348 5.1 17.9998V14.3389C6.27462 14.1844 7.2 13.2154 7.2 11.9998C7.2 10.7842 6.27462 9.81521 5.1 9.66074V5.9998C5.1 5.6648 5.365 5.3998 5.7 5.3998ZM10.5 6.2998C10.4204 6.2998 10.3441 6.33141 10.2879 6.38767C10.2316 6.44393 10.2 6.52024 10.2 6.5998C10.2 6.67937 10.2316 6.75568 10.2879 6.81194C10.3441 6.8682 10.4204 6.8998 10.5 6.8998C10.5796 6.8998 10.6559 6.8682 10.7121 6.81194C10.7684 6.75568 10.8 6.67937 10.8 6.5998C10.8 6.52024 10.7684 6.44393 10.7121 6.38767C10.6559 6.33141 10.5796 6.2998 10.5 6.2998ZM10.5 7.4998C10.4204 7.4998 10.3441 7.53141 10.2879 7.58767C10.2316 7.64393 10.2 7.72024 10.2 7.7998C10.2 7.87937 10.2316 7.95568 10.2879 8.01194C10.3441 8.0682 10.4204 8.0998 10.5 8.0998C10.5796 8.0998 10.6559 8.0682 10.7121 8.01194C10.7684 7.95568 10.8 7.87937 10.8 7.7998C10.8 7.72024 10.7684 7.64393 10.7121 7.58767C10.6559 7.53141 10.5796 7.4998 10.5 7.4998ZM14.7293 8.29316C13.8356 8.29316 13.2 9.00841 13.2 10.0164C13.2 11.0295 13.8356 11.7443 14.7293 11.7443C15.623 11.7443 16.2539 11.0292 16.2539 10.0164C16.2539 9.00331 15.623 8.29316 14.7293 8.29316ZM18.985 8.41738L16.4725 11.848L13.7361 15.5822H14.6496L17.1076 12.2207L19.8885 8.41738H18.985ZM10.5 8.6998C10.4204 8.6998 10.3441 8.73141 10.2879 8.78767C10.2316 8.84393 10.2 8.92024 10.2 8.9998C10.2 9.07937 10.2316 9.15568 10.2879 9.21194C10.3441 9.2682 10.4204 9.2998 10.5 9.2998C10.5796 9.2998 10.6559 9.2682 10.7121 9.21194C10.7684 9.15568 10.8 9.07937 10.8 8.9998C10.8 8.92024 10.7684 8.84393 10.7121 8.78767C10.6559 8.73141 10.5796 8.6998 10.5 8.6998ZM14.7293 8.92891C15.1763 8.92891 15.4594 9.34591 15.4594 10.0164C15.4594 10.6719 15.1661 11.1086 14.7293 11.1086C14.2874 11.1086 13.9945 10.6767 13.9945 10.0164C13.9945 9.35611 14.2823 8.92891 14.7293 8.92891ZM10.5 9.8998C10.4204 9.8998 10.3441 9.93141 10.2879 9.98767C10.2316 10.0439 10.2 10.1202 10.2 10.1998C10.2 10.2794 10.2316 10.3557 10.2879 10.4119C10.3441 10.4682 10.4204 10.4998 10.5 10.4998C10.5796 10.4998 10.6559 10.4682 10.7121 10.4119C10.7684 10.3557 10.8 10.2794 10.8 10.1998C10.8 10.1202 10.7684 10.0439 10.7121 9.98767C10.6559 9.93141 10.5796 9.8998 10.5 9.8998ZM10.5 11.0998C10.4204 11.0998 10.3441 11.1314 10.2879 11.1877C10.2316 11.2439 10.2 11.3202 10.2 11.3998C10.2 11.4794 10.2316 11.5557 10.2879 11.6119C10.3441 11.6682 10.4204 11.6998 10.5 11.6998C10.5796 11.6998 10.6559 11.6682 10.7121 11.6119C10.7684 11.5557 10.8 11.4794 10.8 11.3998C10.8 11.3202 10.7684 11.2439 10.7121 11.1877C10.6559 11.1314 10.5796 11.0998 10.5 11.0998ZM18.876 12.2553C17.9823 12.2553 17.3461 12.9705 17.3461 13.9785C17.3461 14.9916 17.9823 15.7064 18.876 15.7064C19.7697 15.7064 20.4 14.9913 20.4 13.9785C20.4 12.9654 19.7697 12.2553 18.876 12.2553ZM10.5 12.2998C10.4204 12.2998 10.3441 12.3314 10.2879 12.3877C10.2316 12.4439 10.2 12.5202 10.2 12.5998C10.2 12.6794 10.2316 12.7557 10.2879 12.8119C10.3441 12.8682 10.4204 12.8998 10.5 12.8998C10.5796 12.8998 10.6559 12.8682 10.7121 12.8119C10.7684 12.7557 10.8 12.6794 10.8 12.5998C10.8 12.5202 10.7684 12.4439 10.7121 12.3877C10.6559 12.3314 10.5796 12.2998 10.5 12.2998ZM18.876 12.891C19.323 12.891 19.6055 13.308 19.6055 13.9785C19.6055 14.634 19.3128 15.0707 18.876 15.0707C18.4341 15.0707 18.1406 14.6388 18.1406 13.9785C18.1406 13.3182 18.429 12.891 18.876 12.891ZM10.5 13.4998C10.4204 13.4998 10.3441 13.5314 10.2879 13.5877C10.2316 13.6439 10.2 13.7202 10.2 13.7998C10.2 13.8794 10.2316 13.9557 10.2879 14.0119C10.3441 14.0682 10.4204 14.0998 10.5 14.0998C10.5796 14.0998 10.6559 14.0682 10.7121 14.0119C10.7684 13.9557 10.8 13.8794 10.8 13.7998C10.8 13.7202 10.7684 13.6439 10.7121 13.5877C10.6559 13.5314 10.5796 13.4998 10.5 13.4998ZM10.5 14.6998C10.4204 14.6998 10.3441 14.7314 10.2879 14.7877C10.2316 14.8439 10.2 14.9202 10.2 14.9998C10.2 15.0794 10.2316 15.1557 10.2879 15.2119C10.3441 15.2682 10.4204 15.2998 10.5 15.2998C10.5796 15.2998 10.6559 15.2682 10.7121 15.2119C10.7684 15.1557 10.8 15.0794 10.8 14.9998C10.8 14.9202 10.7684 14.8439 10.7121 14.7877C10.6559 14.7314 10.5796 14.6998 10.5 14.6998ZM10.5 15.8998C10.4204 15.8998 10.3441 15.9314 10.2879 15.9877C10.2316 16.0439 10.2 16.1202 10.2 16.1998C10.2 16.2794 10.2316 16.3557 10.2879 16.4119C10.3441 16.4682 10.4204 16.4998 10.5 16.4998C10.5796 16.4998 10.6559 16.4682 10.7121 16.4119C10.7684 16.3557 10.8 16.2794 10.8 16.1998C10.8 16.1202 10.7684 16.0439 10.7121 15.9877C10.6559 15.9314 10.5796 15.8998 10.5 15.8998ZM10.5 17.0998C10.4204 17.0998 10.3441 17.1314 10.2879 17.1877C10.2316 17.2439 10.2 17.3202 10.2 17.3998C10.2 17.4794 10.2316 17.5557 10.2879 17.6119C10.3441 17.6682 10.4204 17.6998 10.5 17.6998C10.5796 17.6998 10.6559 17.6682 10.7121 17.6119C10.7684 17.5557 10.8 17.4794 10.8 17.3998C10.8 17.3202 10.7684 17.2439 10.7121 17.1877C10.6559 17.1314 10.5796 17.0998 10.5 17.0998Z" fill="black"/>
</g>
<defs>
<filter id="filter0_d_861_3059" x="-1" y="0" width="32" height="32" filterUnits="userSpaceOnUse" color-interpolation-filters="sRGB">
<feFlood flood-opacity="0" result="BackgroundImageFix"/>
<feColorMatrix in="SourceAlpha" type="matrix" values="0 0 0 0 0 0 0 0 0 0 0 0 0 0 0 0 0 0 127 0" result="hardAlpha"/>
<feOffset dy="4"/>
<feGaussianBlur stdDeviation="2"/>
<feComposite in2="hardAlpha" operator="out"/>
<feColorMatrix type="matrix" values="0 0 0 0 0 0 0 0 0 0 0 0 0 0 0 0 0 0 0.25 0"/>
<feBlend mode="normal" in2="BackgroundImageFix" result="effect1_dropShadow_861_3059"/>
<feBlend mode="normal" in="SourceGraphic" in2="effect1_dropShadow_861_3059" result="shape"/>
</filter>
</defs>
</svg>
